HIERARCHY
ROOT Hips
{
	OFFSET 0.00000 0.00000 0.00000
	CHANNELS 6 Xposition Yposition Zposition Zrotation Yrotation Xrotation 
	JOINT LHipJoint
	{
		OFFSET 0 0 0
		CHANNELS 3 Zrotation Yrotation Xrotation
		JOINT LeftHip
		{
			OFFSET 1.64577 -1.42384 0.94276
			CHANNELS 3 Zrotation Yrotation Xrotation
			JOINT LeftKnee
			{
				OFFSET 2.11538 -5.81197 0.00000
				CHANNELS 3 Zrotation Yrotation Xrotation
				JOINT LeftAnkle
				{
					OFFSET 2.36541 -6.49893 0.00000
					CHANNELS 3 Zrotation Yrotation Xrotation
					JOINT LeftToe
					{
						OFFSET 0.17759 -0.48793 1.73865
						CHANNELS 3 Zrotation Yrotation Xrotation
						End Site
						{
							OFFSET 0.00000 -0.00000 0.91205
						}
					}
				}
			}
		}
	}
	JOINT RHipJoint
	{
		OFFSET 0 0 0
		CHANNELS 3 Zrotation Yrotation Xrotation
		JOINT RightHip
		{
			OFFSET -1.43750 -1.42384 0.94276
			CHANNELS 3 Zrotation Yrotation Xrotation
			JOINT RightKnee
			{
				OFFSET -2.10480 -5.78291 0.00000
				CHANNELS 3 Zrotation Yrotation Xrotation
				JOINT RightAnkle
				{
					OFFSET -2.34880 -6.45329 0.00000
					CHANNELS 3 Zrotation Yrotation Xrotation
					JOINT RightToe
					{
						OFFSET -0.22842 -0.62757 1.80469
						CHANNELS 3 Zrotation Yrotation Xrotation
						End Site
						{
							OFFSET -0.00000 -0.00000 0.95886
						}
					}
				}
			}
		}
	}
	JOINT lowerback
	{
		OFFSET 0 0 0
		CHANNELS 3 Zrotation Yrotation Xrotation
		JOINT Chest
		{
			OFFSET 0.06217 1.93758 -0.49272
			CHANNELS 3 Zrotation Yrotation Xrotation
			JOINT Chest2
			{
				OFFSET -0.03114 2.03621 -0.05830
				CHANNELS 3 Zrotation Yrotation Xrotation
				JOINT lowerneck
				{
					OFFSET 0 0 0
					CHANNELS 3 Zrotation Yrotation Xrotation
					JOINT Neck
					{
						OFFSET 0.04421 1.41010 0.26562
						CHANNELS 3 Zrotation Yrotation Xrotation
						JOINT Head
						{
							OFFSET -0.13407 1.43847 0.06181
							CHANNELS 3 Zrotation Yrotation Xrotation
							End Site
							{
								OFFSET -0.04980 1.45844 -0.00689
							}
						}
					}
				}
				JOINT LeftCollar
				{
					OFFSET 0 0 0
					CHANNELS 3 Zrotation Yrotation Xrotation
					JOINT LeftShoulder
					{
						OFFSET 2.18382 1.47753 -0.35694
CHANNELS 3 Zrotation Xrotation Yrotation
						JOINT LeftElbow
						{
OFFSET 0 -5.054600 0.000000
CHANNELS 3 Zrotation Xrotation Yrotation
							JOINT LeftWrist
							{
OFFSET 0 -3.390130 0.000000
CHANNELS 3 Zrotation Xrotation Yrotation
								JOINT lhand
								{
									OFFSET 0 0 0
CHANNELS 3 Zrotation Xrotation Yrotation
									JOINT LFingers
									{
OFFSET 0 -0.572420 -0.000000
CHANNELS 3 Zrotation Xrotation Yrotation
										End Site
										{
OFFSET 0 -0.461500 -0.000000
										}
									}
								}
								JOINT LThumb
								{
OFFSET 0 0.000000 0.000000
CHANNELS 3 Zrotation Xrotation Yrotation
									End Site
									{
OFFSET 0 -0.468550 0.468550
									}
								}
							}
						}
					}
				}
				JOINT RightCollar
				{
					OFFSET 0 0 0
					CHANNELS 3 Zrotation Yrotation Xrotation
					JOINT RightShoulder
					{
						OFFSET -2.06033 1.72839 -0.47437
CHANNELS 3 Zrotation Xrotation Yrotation
						JOINT RightElbow
						{
OFFSET 0 -5.070100 0.000000
CHANNELS 3 Zrotation Xrotation Yrotation
							JOINT RightWrist
							{
OFFSET 0 -3.149570 -0.000000
CHANNELS 3 Zrotation Xrotation Yrotation
								JOINT rhand
								{
									OFFSET 0 0 0
CHANNELS 3 Zrotation Xrotation Yrotation
									JOINT RFingers
									{
OFFSET 0 -0.718190 -0.000000
CHANNELS 3 Zrotation Xrotation Yrotation
										End Site
										{
OFFSET 0 -0.579020 -0.000000
										}
									}
								}
								JOINT RThumb
								{
OFFSET 0 0.000000 0.000000
CHANNELS 3 Zrotation Xrotation Yrotation
									End Site
									{
OFFSET 0 -0.587860 0.587860
									}
								}
							}
						}
					}
				}
			}
		}
	}
}
MOTION
Frames: 12
Frame Time: 0.008333333333333333
9.146260 15.401258 2.154675 -173.953806 10.768291 182.901018 0.000000 0.000000 0.000000 -12.203742 -5.342680 -14.508125 5.726890 14.148442 43.856578 1.634559 1.643179 -24.654606 0.356457 -3.830105 -10.599819 0.000000 0.000000 0.000000 26.957955 6.387467 -9.296952 -3.398165 -11.280066 33.270111 -0.631172 -10.148355 -21.734733 -3.353345 11.244165 -33.110174 5.701328 0.728205 16.465847 0.661307 2.571064 4.707971 -3.043262 1.524331 -3.991573 11.866218 6.963471 -0.093629 -12.830273 9.284814 -13.953957 -6.049825 5.018590 -2.903082 0.000000 0.000000 0.000000 11.809772 14.601489 -31.227880 90.826193 -59.988494 60.715472 34.724443 -14.580704 -17.172653 0.000000 0.000000 0.000000 -7.125000 0.000000 0.000000 6.877714 50.461120 -0.934352 0.000000 0.000000 0.000000 -28.983141 23.951609 64.052488 -77.859757 -59.425863 -49.507174 -28.912316 -24.554750 3.957767 0.000000 0.000000 0.000000 7.125000 0.000000 0.000000 -1.883494 34.495353 -0.482994
9.150579 15.152773 2.203626 -174.473419 10.690872 182.899055 0.000000 0.000000 0.000000 -12.847826 -5.476641 -15.574574 6.241071 14.657126 45.940133 2.177076 1.146536 -28.335218 0.410970 -4.114714 -11.399656 0.000000 0.000000 0.000000 26.485264 6.430201 -11.279857 -4.071894 -12.252998 36.636534 -1.147316 -9.030664 -25.358999 -3.516035 11.486694 -33.939722 5.063985 0.752615 16.763741 0.589320 2.524993 4.782314 -2.762187 1.506792 -4.101320 12.103054 6.980813 0.436912 -13.100419 9.354641 -14.689072 -6.228876 5.087370 -3.172247 0.000000 0.000000 0.000000 10.996715 13.900666 -31.069640 88.681580 -59.992682 58.858217 35.140330 -14.063513 -17.929560 0.000000 0.000000 0.000000 -7.125000 0.000000 0.000000 7.275342 51.424759 -1.156856 0.000000 0.000000 0.000000 -28.362224 23.270026 63.786465 -75.701270 -59.212390 -47.649722 -29.676749 -24.895051 4.253501 0.000000 0.000000 0.000000 7.125000 0.000000 0.000000 -2.514882 34.863859 -0.626182
9.153817 14.952311 2.255122 -174.757689 10.697160 182.949885 0.000000 0.000000 0.000000 -13.263374 -5.871513 -16.717414 6.760532 15.117914 47.946598 2.534437 1.686799 -30.715913 0.450282 -4.302896 -11.930630 0.000000 0.000000 0.000000 26.343261 7.011678 -13.227461 -4.787795 -13.113920 39.842352 -1.480784 -9.126766 -27.830215 -3.445354 11.382762 -33.582445 4.581903 0.765322 17.119007 0.578204 2.502328 4.907414 -2.509035 1.507636 -4.180028 12.323098 7.037973 0.901622 -13.382651 9.480059 -15.461396 -6.411679 5.188207 -3.435178 0.000000 0.000000 0.000000 10.151729 13.268029 -30.869166 86.406639 -59.940452 56.888824 35.718730 -13.883815 -18.698679 0.000000 0.000000 0.000000 -7.125000 0.000000 0.000000 7.860290 52.443227 -1.455242 0.000000 0.000000 0.000000 -27.657346 22.360670 63.492010 -73.164709 -58.886271 -45.476085 -30.310853 -25.282929 4.644708 0.000000 0.000000 0.000000 7.125000 0.000000 0.000000 -3.044692 35.344121 -0.719757
9.157140 14.776648 2.306080 -174.924491 10.729102 183.006015 0.000000 0.000000 0.000000 -13.553661 -6.301282 -17.843695 7.261495 15.542200 49.846291 2.794368 2.480178 -32.566417 0.485117 -4.465317 -12.389645 0.000000 0.000000 0.000000 26.367319 7.731932 -15.024533 -5.475486 -13.884492 42.808269 -1.734294 -9.574308 -29.897279 -3.298103 11.158443 -32.820856 4.192409 0.770951 17.485865 0.592637 2.492017 5.059600 -2.283181 1.517899 -4.231811 12.526071 7.112724 1.321758 -13.650242 9.627301 -16.193952 -6.584801 5.298772 -3.677799 0.000000 0.000000 0.000000 9.323424 12.712973 -30.680516 84.213133 -59.864981 54.990964 36.374646 -13.944709 -19.437447 0.000000 0.000000 0.000000 -7.125000 0.000000 0.000000 8.544850 53.448405 -1.794977 0.000000 0.000000 0.000000 -26.946152 21.442095 63.179450 -70.700398 -58.532382 -43.369746 -30.890272 -25.703407 5.063188 0.000000 0.000000 0.000000 7.125000 0.000000 0.000000 -3.531976 35.857007 -0.792118
9.160608 14.630319 2.356274 -174.952631 10.790160 183.066876 0.000000 0.000000 0.000000 -13.695278 -6.765334 -18.946465 7.739094 15.922486 51.615003 2.938930 3.553171 -33.799679 0.514893 -4.598950 -12.768229 0.000000 0.000000 0.000000 26.587467 8.606570 -16.634285 -6.126311 -14.545919 45.479432 -1.894236 -10.418254 -31.499702 -3.063361 10.795826 -31.595643 3.913297 0.768137 17.865169 0.636876 2.496336 5.243886 -2.090519 1.539298 -4.250986 12.708262 7.208073 1.688432 -13.899054 9.799872 -16.875338 -6.745658 5.420364 -3.895198 0.000000 0.000000 0.000000 8.517173 12.252652 -30.508206 82.126371 -59.762433 53.186783 37.121802 -14.294826 -20.137746 0.000000 0.000000 0.000000 -7.125000 0.000000 0.000000 9.347435 54.434949 -2.183770 0.000000 0.000000 0.000000 -26.230081 20.520208 62.845235 -68.340283 -58.147777 -41.359159 -31.405893 -26.163009 5.512385 0.000000 0.000000 0.000000 7.125000 0.000000 0.000000 -3.969655 36.406723 -0.839695
9.162878 14.535652 2.400775 -174.733846 10.833837 183.175085 0.000000 0.000000 0.000000 -13.550355 -7.167356 -19.880103 8.116784 16.200766 52.976229 2.970638 4.520203 -34.390098 0.498161 -4.524256 -12.556651 0.000000 0.000000 0.000000 27.117230 9.473656 -17.774101 -6.614537 -14.990686 47.386685 -1.960082 -11.398667 -32.597307 -2.767907 10.299619 -29.962105 3.935349 0.737634 18.190533 0.708205 2.520074 5.440518 -2.040677 1.572865 -4.214842 12.821171 7.300426 1.975395 -14.046998 9.963754 -17.401258 -6.853894 5.528531 -4.064112 0.000000 0.000000 0.000000 7.841038 12.033081 -30.452945 80.488989 -59.649756 51.773246 37.914687 -15.063756 -20.692887 0.000000 0.000000 0.000000 -7.125000 0.000000 0.000000 10.243157 55.274058 -2.614037 0.000000 0.000000 0.000000 -25.536665 19.825947 62.449949 -66.592386 -57.816933 -39.877902 -31.862000 -26.660729 5.921007 0.000000 0.000000 0.000000 7.125000 0.000000 0.000000 -4.361604 36.912148 -0.867134
9.164505 14.468876 2.439424 -174.565699 10.833666 183.273943 0.000000 0.000000 0.000000 -13.461081 -7.556747 -20.631020 8.408833 16.411279 54.021222 2.974768 5.323997 -34.769146 0.455788 -4.323428 -11.989616 0.000000 0.000000 0.000000 27.581793 10.254913 -18.643328 -6.991313 -15.323324 48.839177 -2.000607 -12.318746 -33.505492 -2.474028 9.782022 -28.280883 3.968464 0.702175 18.468384 0.749974 2.533010 5.629556 -2.024392 1.600520 -4.160037 12.902590 7.381744 2.226406 -14.148876 10.106992 -17.815749 -6.935166 5.620264 -4.200960 0.000000 0.000000 0.000000 7.242078 11.963966 -30.476274 79.121650 -59.546247 50.593573 38.656989 -15.936882 -21.117526 0.000000 0.000000 0.000000 -7.125000 0.000000 0.000000 11.097095 55.952004 -3.011829 0.000000 0.000000 0.000000 -24.890602 19.342217 62.030322 -65.291398 -57.561447 -38.777012 -32.299441 -27.172635 6.252513 0.000000 0.000000 0.000000 7.125000 0.000000 0.000000 -4.738718 37.328418 -0.895970
9.165290 14.438642 2.469658 -174.513346 10.766784 183.351165 0.000000 0.000000 0.000000 -13.501262 -7.935201 -21.117977 8.580162 16.529599 54.626040 2.951732 5.885428 -34.907753 0.379679 -3.953678 -10.946987 0.000000 0.000000 0.000000 27.898468 10.901745 -19.153517 -7.215715 -15.510358 49.684496 -2.014808 -13.123753 -34.187860 -2.191448 9.250040 -26.583634 3.975336 0.662909 18.679043 0.741140 2.526073 5.804811 -2.040360 1.617077 -4.083797 12.944342 7.446074 2.432223 -14.192657 10.218899 -18.076864 -6.981499 5.687997 -4.294216 0.000000 0.000000 0.000000 6.746090 12.097469 -30.606700 78.115473 -59.458685 49.726461 39.312787 -16.913741 -21.357176 0.000000 0.000000 0.000000 -7.125000 0.000000 0.000000 11.871541 56.396881 -3.352326 0.000000 0.000000 0.000000 -24.316018 19.157866 61.581125 -64.607197 -57.417146 -38.199876 -32.716048 -27.701410 6.468145 0.000000 0.000000 0.000000 7.125000 0.000000 0.000000 -5.099044 37.610344 -0.929935
9.165006 14.457017 2.486784 -174.580826 10.568815 183.441890 0.000000 0.000000 0.000000 -13.651433 -8.269265 -21.237047 8.560317 16.516213 54.556521 2.927346 6.077677 -34.868577 0.291136 -3.445640 -9.524432 0.000000 0.000000 0.000000 28.008725 11.215854 -19.218461 -7.213725 -15.509257 49.678033 -2.020119 -13.647795 -34.618687 -1.970923 8.797217 -25.168363 4.014670 0.616274 18.766773 0.675144 2.496013 5.934382 -2.126597 1.617881 -3.988766 12.885501 7.476873 2.509371 -14.084648 10.271338 -18.064610 -6.940966 5.709596 -4.307469 0.000000 0.000000 0.000000 6.435424 12.492920 -30.934264 77.582446 -59.408762 49.267462 39.724584 -17.688850 -21.349449 0.000000 0.000000 0.000000 -7.125000 0.000000 0.000000 12.361027 56.490693 -3.520216 0.000000 0.000000 0.000000 -23.883435 19.485259 61.101548 -64.884882 -57.476452 -38.433958 -33.126015 -28.196428 6.446022 0.000000 0.000000 0.000000 7.125000 0.000000 0.000000 -5.449974 37.612599 -0.994842
9.163723 14.498603 2.497950 -174.683057 10.292916 183.568891 0.000000 0.000000 0.000000 -13.821530 -8.584364 -21.191902 8.441928 16.433630 54.137305 2.881862 6.157197 -34.660945 0.220573 -3.020401 -8.335789 0.000000 0.000000 0.000000 28.023222 11.360462 -19.113641 -7.104556 -15.417922 49.266239 -2.005511 -14.050175 -34.849576 -1.803237 8.442584 -24.067250 4.096826 0.564181 18.784980 0.589229 2.455061 6.029304 -2.253970 1.609929 -3.892273 12.793921 7.485661 2.528713 -13.919658 10.287877 -17.937336 -6.867657 5.706564 -4.286830 0.000000 0.000000 0.000000 6.227100 13.015785 -31.360194 77.265907 -59.378328 48.994978 40.008511 -18.246818 -21.225584 0.000000 0.000000 0.000000 -7.125000 0.000000 0.000000 12.695145 56.414572 -3.593286 0.000000 0.000000 0.000000 -23.538159 20.087352 60.631510 -65.679600 -57.638003 -39.105426 -33.553368 -28.668380 6.311370 0.000000 0.000000 0.000000 7.125000 0.000000 0.000000 -5.812176 37.482248 -1.081034
9.160778 14.570983 2.501419 -174.815905 9.903076 183.764564 0.000000 0.000000 0.000000 -13.995606 -8.875845 -20.936808 8.187815 16.254906 53.235116 2.794300 6.130955 -34.172286 0.190339 -2.807517 -7.743536 0.000000 0.000000 0.000000 27.912625 11.272900 -18.813129 -6.853847 -15.206608 48.317717 -1.953681 -14.299772 -34.760247 -1.721630 8.259803 -23.506540 4.254607 0.503516 18.703504 0.481969 2.399762 6.069420 -2.441135 1.589511 -3.799018 12.669450 7.461121 2.473872 -13.689759 10.251622 -17.668172 -6.756863 5.669066 -4.224202 0.000000 0.000000 0.000000 6.164079 13.709278 -31.919530 77.230044 -59.374794 48.964155 40.114985 -18.433525 -20.949024 0.000000 0.000000 0.000000 -7.125000 0.000000 0.000000 12.809866 56.111443 -3.532032 0.000000 0.000000 0.000000 -23.322134 21.074747 60.190690 -67.199958 -57.938645 -40.391565 -34.017944 -29.104946 6.028135 0.000000 0.000000 0.000000 7.125000 0.000000 0.000000 -6.200184 37.176632 -1.199943
9.156887 14.671181 2.500470 -175.029212 9.435563 183.986005 0.000000 0.000000 0.000000 -14.203339 -9.153916 -20.535677 7.832629 15.990518 51.950615 2.604718 6.209835 -33.144447 0.208801 -2.937399 -8.104854 0.000000 0.000000 0.000000 27.620968 11.078585 -18.364741 -6.502589 -14.893117 46.957486 -1.824126 -14.459392 -34.158556 -1.709544 8.232945 -23.423956 4.391774 0.460941 18.598048 0.350939 2.356506 6.078667 -2.644392 1.571880 -3.725430 12.531568 7.392879 2.359713 -13.433092 10.154943 -17.365772 -6.631976 5.600330 -4.151897 0.000000 0.000000 0.000000 6.304677 14.545862 -32.604393 77.452703 -59.396502 49.155777 40.083996 -18.263005 -20.522011 0.000000 0.000000 0.000000 -7.125000 0.000000 0.000000 12.752414 55.593073 -3.355453 0.000000 0.000000 0.000000 -23.251460 22.420632 59.797777 -69.401011 -58.319063 -42.263058 -34.482204 -29.570541 5.598339 0.000000 0.000000 0.000000 7.125000 0.000000 0.000000 -6.575939 36.690587 -1.354033
